<svg height="256" viewBox="0 0 191.99997 191.99987" width="256" xmlns="http://www.w3.org/2000/svg" xmlns:xlink="http://www.w3.org/1999/xlink"><clipPath><circle cx="1112.3859" cy="656.08191" r="93.374962"/></clipPath><clipPath><circle cx="431.33286" cy="254.39885" r="36.206581"/></clipPath><clipPath><circle cx="431.33286" cy="254.39885" r="36.206581"/></clipPath><clipPath><circle cx="431.33286" cy="254.39885" r="36.206581"/></clipPath><clipPath><circle cx="431.33286" cy="254.39885" r="36.206581"/></clipPath><clipPath><circle cx="431.33286" cy="254.39885" r="36.206581"/></clipPath><clipPath><circle cx="1112.3859" cy="656.08191" r="93.374962"/></clipPath><clipPath><circle cx="431.33286" cy="254.39885" r="36.206581"/></clipPath><clipPath><ellipse cx="412.45621" cy="231.59549" rx="23.378927" ry="23.387762"/></clipPath><clipPath><ellipse cx="412.45621" cy="231.59549" rx="23.378927" ry="23.387762"/></clipPath><clipPath><ellipse cx="412.45621" cy="231.59549" rx="23.378927" ry="23.387762"/></clipPath><clipPath><ellipse cx="412.45621" cy="231.59549" rx="23.378927" ry="23.387762"/></clipPath><clipPath><ellipse cx="412.45621" cy="231.59549" rx="23.378927" ry="23.387762"/></clipPath><clipPath><ellipse cx="412.45621" cy="231.59549" rx="23.378927" ry="23.387762"/></clipPath><clipPath><ellipse cx="412.45621" cy="231.59549" rx="23.378927" ry="23.387762"/></clipPath><clipPath><ellipse cx="412.45621" cy="231.59549" rx="23.378927" ry="23.387762"/></clipPath><clipPath><ellipse cx="412.45621" cy="231.59549" rx="23.378927" ry="23.387762"/></clipPath><clipPath><ellipse cx="412.45621" cy="231.59549" rx="23.378927" ry="23.387762"/></clipPath><clipPath><ellipse cx="412.45621" cy="231.59549" rx="23.378927" ry="23.387762"/></clipPath><clipPath><ellipse cx="412.45621" cy="231.59549" rx="23.378927" ry="23.387762"/></clipPath><clipPath><ellipse cx="412.45621" cy="231.59549" rx="23.378927" ry="23.387762"/></clipPath><clipPath><ellipse cx="412.45621" cy="231.59549" rx="23.378927" ry="23.387762"/></clipPath><clipPath><ellipse cx="412.45621" cy="231.59549" rx="23.378927" ry="23.387762"/></clipPath><clipPath><ellipse cx="412.45621" cy="231.59549" rx="23.378927" ry="23.387762"/></clipPath><clipPath><ellipse cx="412.45621" cy="231.59549" rx="23.378927" ry="23.387762"/></clipPath><clipPath><ellipse cx="412.45621" cy="231.59549" rx="23.378927" ry="23.387762"/></clipPath><clipPath><ellipse cx="412.45621" cy="231.59549" rx="23.378927" ry="23.387762"/></clipPath><clipPath><circle cx="431.33286" cy="254.39885" r="36.206581"/></clipPath><clipPath><circle cx="431.33286" cy="254.39885" r="36.206581"/></clipPath><clipPath><circle cx="431.33286" cy="254.39885" r="36.206581"/></clipPath><clipPath><circle cx="431.33286" cy="254.39885" r="36.206581"/></clipPath><clipPath><circle cx="431.33286" cy="254.39885" r="36.206581"/></clipPath><clipPath><circle cx="431.33286" cy="254.39885" r="36.206581"/></clipPath><clipPath><circle cx="431.33286" cy="254.39885" r="36.206581"/></clipPath><clipPath><circle cx="431.33286" cy="254.39885" r="36.206581"/></clipPath><clipPath><circle cx="1112.3859" cy="656.08191" r="93.374962"/></clipPath><clipPath id="a"><circle cx="1112.3859" cy="656.08191" r="93.374962"/></clipPath><circle cx="96" cy="95.99996" r="92.249962" style="fill:#fff;fill-rule:evenodd;stroke:#000;stroke-width:7.5;stroke-linecap:square;stroke-linejoin:bevel"/><g transform="translate(-1015.2609 -558.95695)"><path clip-path="url(#a)" d="m1025.2379 619.7774h174.296" fill="none" stroke="#000" stroke-width="6.07317" transform="matrix(.98795179 0 0 .98795179 12.27726 6.779613)"/><circle cx="1111.2609" cy="619.08978" r="27.04517" style="fill:#fff;fill-rule:evenodd;stroke:#f60;stroke-width:5.25;stroke-linecap:square;stroke-linejoin:bevel"/></g></svg>
